<svg width="30" height="30" viewBox="0 0 30 30" fill="none" xmlns="http://www.w3.org/2000/svg">
<g id="html 1">
<path id="Vector" d="M1.75781 0L3.62114 26.256L15.0117 30L26.4022 26.256L28.2655 0H1.75781Z" fill="#FF7816"/>
<path id="Vector_2" d="M28.2655 0L26.4022 26.256L15.0117 30V0H28.2655Z" fill="#FF4B00"/>
<path id="Vector_3" d="M23.291 7.96875H10.2656L10.5819 12.3633H22.9747L22.2187 23.0038L15.0117 25.4121L7.80463 23.0038L7.55858 19.4531H11.0742L11.1445 20.4199L15.0117 21.703L18.8788 20.4199L19.1952 15.8789H7.29491L6.48627 4.45312H23.537L23.291 7.96875Z" fill="#ECECF1"/>
<g id="Group">
<path id="Vector_4" d="M22.9747 12.3633L22.2187 23.0038L15.0117 25.4121V21.703L18.8788 20.4199L19.1952 15.8789H15.0117V12.3633H22.9747Z" fill="#E2E2E7"/>
<path id="Vector_5" d="M23.537 4.45312L23.291 7.96875H15.0117V4.45312H23.537Z" fill="#E2E2E7"/>
</g>
</g>
</svg>
