<svg width="30" height="30" viewBox="0 0 30 30" fill="none" xmlns="http://www.w3.org/2000/svg">
<g id="java 1" clip-path="url(#clip0_1_1649)">
<g id="Group">
<path id="Vector" d="M14.8514 5.5589C13.4652 6.53384 11.8941 7.63886 11.0523 9.46705C9.59016 12.6566 14.0442 16.1358 14.2346 16.2823C14.2789 16.3163 14.3318 16.3333 14.3846 16.3333C14.4407 16.3333 14.4968 16.3142 14.5424 16.276C14.6308 16.202 14.6559 16.0764 14.6028 15.9741C14.5867 15.943 12.9879 12.8376 13.0473 10.6097C13.0684 9.83374 14.1543 8.95348 15.3039 8.02154C16.3568 7.16794 17.5504 6.2005 18.2487 5.06876C19.7818 2.57757 18.0779 0.127995 18.0604 0.103503C17.9928 0.00846338 17.8679 -0.0259313 17.761 0.0208853C17.6543 0.0679949 17.5952 0.183366 17.6196 0.297449C17.623 0.313679 17.9544 1.93357 17.0324 3.6025C16.6526 4.29215 15.8179 4.87915 14.8514 5.5589Z" fill="#DB380E"/>
<path id="Vector_2" d="M20.6917 6.65761C20.7895 6.58396 20.8182 6.4496 20.759 6.34238C20.6998 6.23515 20.5709 6.18787 20.4564 6.23134C20.2209 6.32087 14.6898 8.45293 14.6898 11.029C14.6898 12.8048 15.4484 13.7429 16.0023 14.428C16.2195 14.6967 16.4071 14.9287 16.4689 15.1268C16.6429 15.6977 16.2307 16.7296 16.0573 17.079C16.0073 17.1795 16.0318 17.3012 16.1168 17.3746C16.1627 17.4142 16.2201 17.4344 16.2775 17.4344C16.3264 17.4344 16.3755 17.4199 16.4179 17.3903C16.513 17.3242 18.7422 15.7482 18.3424 13.8493C18.1934 13.1276 17.8388 12.6002 17.5258 12.1349C17.041 11.4139 16.6909 10.8931 17.2221 9.9312C17.8445 8.80924 20.6631 6.67894 20.6917 6.65761Z" fill="#DB380E"/>
</g>
<g id="Group_2">
<path id="Vector_3" d="M6.29407 17.4749C6.19926 17.7588 6.24403 18.0404 6.42339 18.2895C7.02298 19.122 9.14683 19.5803 12.404 19.5803C12.4041 19.5803 12.4042 19.5803 12.4044 19.5803C12.8457 19.5803 13.3116 19.5716 13.7889 19.5545C18.9964 19.3681 20.9279 17.7458 21.0076 17.6768C21.0944 17.6017 21.1176 17.4765 21.0637 17.3752C21.0096 17.2741 20.8932 17.2232 20.7819 17.2538C18.9479 17.7546 15.5233 17.9324 13.1479 17.9324C10.4899 17.9324 9.13623 17.7409 8.80482 17.5995C8.97486 17.366 10.0237 16.949 11.3234 16.6934C11.4476 16.669 11.533 16.5543 11.5206 16.4283C11.5083 16.3023 11.4025 16.2062 11.2759 16.2062C10.5141 16.2062 6.69345 16.2674 6.29407 17.4749Z" fill="#73A1FB"/>
<path id="Vector_4" d="M23.7195 15.8041C22.6455 15.8041 21.6269 16.3424 21.584 16.3652C21.4847 16.4184 21.4343 16.5323 21.4616 16.6418C21.4889 16.7511 21.5872 16.8279 21.6999 16.828C21.7227 16.828 23.991 16.8466 24.1964 18.1426C24.3784 19.2607 22.0502 21.0723 21.1377 21.6761C21.0392 21.7413 21.0009 21.8673 21.0467 21.9762C21.0856 22.069 21.1759 22.127 21.2733 22.127C21.2903 22.127 21.3075 22.1253 21.3246 22.1216C21.5412 22.0753 26.6219 20.9557 26.0847 17.9975C25.757 16.1846 24.6176 15.8041 23.7195 15.8041Z" fill="#73A1FB"/>
<path id="Vector_5" d="M20.2352 21.3141C20.2529 21.2193 20.2135 21.1229 20.1346 21.0676L18.9164 20.2143C18.857 20.1726 18.7819 20.1596 18.7122 20.178C18.6995 20.1813 17.4255 20.5162 15.576 20.7216C14.8419 20.8039 14.0197 20.8474 13.1981 20.8474C11.349 20.8474 10.14 20.6301 9.9639 20.4707C9.94058 20.426 9.94796 20.4056 9.95212 20.3943C9.98411 20.3054 10.1556 20.1997 10.2661 20.1578C10.3881 20.1126 10.4539 19.9801 10.416 19.8557C10.3781 19.731 10.2497 19.6577 10.123 19.6881C8.901 19.983 8.30346 20.3954 8.34694 20.9138C8.42417 21.8329 10.553 22.3046 12.3527 22.4293C12.6115 22.447 12.8914 22.456 13.1845 22.456C13.1846 22.456 13.1848 22.456 13.1849 22.456C16.1776 22.456 20.0141 21.517 20.0524 21.5075C20.1461 21.4846 20.2175 21.409 20.2352 21.3141Z" fill="#73A1FB"/>
<path id="Vector_6" d="M11.0509 23.2865C11.1432 23.2265 11.1841 23.1124 11.1514 23.0074C11.1187 22.9023 11.0205 22.8333 10.9101 22.8347C10.7463 22.8391 9.30759 22.904 9.20687 23.82C9.1764 24.0938 9.2548 24.3439 9.44002 24.5633C9.95658 25.1755 11.351 25.5394 13.7022 25.6757C13.9803 25.6924 14.2629 25.7008 14.5421 25.7008C17.5313 25.7008 19.5444 24.7648 19.6287 24.725C19.7105 24.6863 19.7644 24.606 19.7692 24.5158C19.774 24.4255 19.7289 24.3399 19.6518 24.2927L18.1123 23.3529C18.0588 23.3203 17.9949 23.3095 17.934 23.322C17.9242 23.3241 16.9467 23.5268 15.4715 23.7271C15.1924 23.765 14.8428 23.7843 14.4326 23.7843C12.959 23.7843 11.3199 23.5436 11.0055 23.3859C11.001 23.3565 11.0068 23.3191 11.0509 23.2865Z" fill="#73A1FB"/>
<path id="Vector_7" d="M13.149 28.5267C19.9959 28.5209 23.6707 27.3033 24.3787 26.537C24.6293 26.266 24.6563 26.0093 24.6351 25.8417C24.5825 25.4292 24.2067 25.1767 24.1641 25.1492C24.0613 25.0832 23.9234 25.1004 23.8432 25.1929C23.7633 25.2854 23.7614 25.4205 23.8417 25.5129C23.8848 25.5684 23.9098 25.6614 23.7835 25.7878C23.5005 26.0521 20.6461 26.8544 15.8935 27.0955C15.2425 27.1293 14.5596 27.1465 13.864 27.1467C9.60877 27.1467 6.49456 26.5638 6.08575 26.2242C6.2433 25.9977 7.34487 25.636 8.51634 25.4314C8.64835 25.4084 8.73753 25.284 8.71708 25.1516C8.69663 25.0192 8.57458 24.9281 8.44116 24.9454C8.40812 24.9499 8.29597 24.9566 8.16612 24.9646C6.23323 25.0826 3.99957 25.3456 3.88302 26.3415C3.84763 26.645 3.93781 26.9205 4.15115 27.1603C4.67316 27.7468 6.17358 28.5266 13.1487 28.5266C13.1488 28.5267 13.1488 28.5267 13.149 28.5267Z" fill="#73A1FB"/>
<path id="Vector_8" d="M25.7235 26.7527C25.6267 26.708 25.5123 26.7306 25.4401 26.8085C25.4301 26.8194 24.4007 27.8958 21.3055 28.5279C20.1206 28.7653 17.8963 28.8857 14.6946 28.8857C11.4869 28.8857 8.43452 28.7595 8.40411 28.7582C8.27661 28.752 8.16757 28.8447 8.15022 28.9702C8.13282 29.0956 8.21368 29.2139 8.33679 29.2432C8.36855 29.2507 11.5674 30.0001 15.9411 30.0001C18.0388 30.0001 20.0801 29.8298 22.0083 29.4935C25.6037 28.8632 25.8555 27.0805 25.8644 27.0049C25.877 26.8992 25.8201 26.7975 25.7235 26.7527Z" fill="#73A1FB"/>
</g>
</g>
<defs>
<clipPath id="clip0_1_1649">
<rect width="30" height="30" fill="white"/>
</clipPath>
</defs>
</svg>
