<svg width="50" height="50" viewBox="0 0 50 50" fill="none" xmlns="http://www.w3.org/2000/svg">
<g id="034-7" clip-path="url(#clip0_1_1694)">
<g id="Group">
<g id="Group_2">
<path id="Vector" d="M25 50C38.8071 50 50 38.8071 50 25C50 11.1929 38.8071 0 25 0C11.1929 0 0 11.1929 0 25C0 38.8071 11.1929 50 25 50Z" fill="#FF3333"/>
</g>
<path id="Vector_2" d="M31.7838 49.0681C41.8902 46.2252 49.4028 37.1888 49.9658 26.3136L35.3027 11.6505L17.9952 13.1359L15.9424 17.3146L26.629 28.3716L21.0342 38.3185L31.7838 49.0681Z" fill="#C60000"/>
<g id="Group_3">
<path id="Vector_3" d="M35.3027 11.6505L26.9688 38.3185H21.0342L27.5986 17.3146H15.9424V11.6505H35.3027Z" fill="#F8FFFB"/>
</g>
<g id="Group_4">
<path id="Vector_4" d="M35.3027 11.6505L26.9688 38.3185H25V25.629L27.5986 17.3146H25V11.6505H35.3027Z" fill="#D8D8D8"/>
</g>
</g>
</g>
<defs>
<clipPath id="clip0_1_1694">
<rect width="50" height="50" fill="white"/>
</clipPath>
</defs>
</svg>
