<svg width="24" height="24" viewBox="0 0 24 24" fill="none" xmlns="http://www.w3.org/2000/svg">
<g id="down arrow / 24 / Outline">
<path id="Vector" d="M17 9.17019C16.8126 8.98394 16.5592 8.87939 16.295 8.87939C16.0308 8.87939 15.7774 8.98394 15.59 9.17019L12 12.7102L8.46001 9.17019C8.27265 8.98394 8.0192 8.87939 7.75501 8.87939C7.49082 8.87939 7.23737 8.98394 7.05001 9.17019C6.95628 9.26315 6.88189 9.37375 6.83112 9.49561C6.78035 9.61747 6.75421 9.74818 6.75421 9.88019C6.75421 10.0122 6.78035 10.1429 6.83112 10.2648C6.88189 10.3866 6.95628 10.4972 7.05001 10.5902L11.29 14.8302C11.383 14.9239 11.4936 14.9983 11.6154 15.0491C11.7373 15.0998 11.868 15.126 12 15.126C12.132 15.126 12.2627 15.0998 12.3846 15.0491C12.5064 14.9983 12.617 14.9239 12.71 14.8302L17 10.5902C17.0937 10.4972 17.1681 10.3866 17.2189 10.2648C17.2697 10.1429 17.2958 10.0122 17.2958 9.88019C17.2958 9.74818 17.2697 9.61747 17.2189 9.49561C17.1681 9.37375 17.0937 9.26315 17 9.17019Z" fill="#0A033C"/>
</g>
</svg>
