<svg width="60" height="60" viewBox="0 0 60 60" fill="none" xmlns="http://www.w3.org/2000/svg">
<circle cx="30" cy="30" r="30" fill="#9C4DF4"/>
<path d="M35 31.4101L30.71 27.1701C30.617 27.0763 30.5064 27.0019 30.3846 26.9512C30.2627 26.9004 30.132 26.8743 30 26.8743C29.868 26.8743 29.7373 26.9004 29.6154 26.9512C29.4936 27.0019 29.383 27.0763 29.29 27.1701L25.05 31.4101C24.9563 31.503 24.8819 31.6136 24.8311 31.7355C24.7803 31.8573 24.7542 31.9881 24.7542 32.1201C24.7542 32.2521 24.7803 32.3828 24.8311 32.5046C24.8819 32.6265 24.9563 32.7371 25.05 32.8301C25.2374 33.0163 25.4908 33.1209 25.755 33.1209C26.0192 33.1209 26.2726 33.0163 26.46 32.8301L30 29.2901L33.54 32.8301C33.7263 33.0148 33.9777 33.119 34.24 33.1201C34.3716 33.1208 34.5021 33.0956 34.6239 33.0458C34.7458 32.9961 34.8566 32.9227 34.95 32.8301C35.0471 32.7404 35.1254 32.6325 35.1805 32.5124C35.2357 32.3923 35.2664 32.2625 35.2711 32.1305C35.2757 31.9985 35.2542 31.8668 35.2076 31.7432C35.1611 31.6195 35.0905 31.5063 35 31.4101Z" fill="white"/>
</svg>
