<svg width="60" height="60" viewBox="0 0 60 60" fill="none" xmlns="http://www.w3.org/2000/svg">
<circle cx="30" cy="30" r="30" fill="#FF6652"/>
<g clip-path="url(#clip0_1_1923)">
<path d="M38.0245 33.2741C37.1547 32.4044 36.1719 31.7044 35.1324 31.174C34.9678 31.0928 34.8294 30.9667 34.7331 30.8104C34.6368 30.6541 34.5865 30.4738 34.5879 30.2902L34.8708 27.787C31.9151 26.7405 28.2381 26.6698 25.1693 27.7446L25.3743 30.2972C25.3673 30.6861 25.1481 31.0185 24.8228 31.1882C23.7763 31.7114 22.8005 32.4185 21.9307 33.2883C21.5489 33.6701 20.9125 33.6701 20.5307 33.2883L18.0841 30.8417C17.7022 30.4599 17.4123 29.8305 17.9427 29.3002C24.5117 22.7312 35.4365 22.7383 41.9984 29.3002C42.5005 29.8023 42.253 30.4457 41.8641 30.8346L39.4246 33.2741C39.0427 33.656 38.4063 33.656 38.0245 33.2741Z" fill="white"/>
</g>
<defs>
<clipPath id="clip0_1_1923">
<rect width="24" height="24" fill="white" transform="matrix(0.707107 0.707107 0.707107 -0.707107 13 30.0002)"/>
</clipPath>
</defs>
</svg>
