<svg width="50" height="50" viewBox="0 0 50 50" fill="none" xmlns="http://www.w3.org/2000/svg">
<g id="blocks 1" clip-path="url(#clip0_1_2042)">
<g id="Group">
<g id="Group_2">
<path id="Vector" d="M45.4631 49.9996H30.6474C28.4179 49.9996 26.6105 48.1921 26.6105 45.9626V31.147C26.6105 28.9175 28.4179 27.1101 30.6474 27.1101H45.463C47.6925 27.1101 49.5 28.9175 49.5 31.147V45.9626C49.5001 48.1921 47.6926 49.9996 45.4631 49.9996Z" fill="#BDF4E3"/>
<path id="Vector_2" d="M44.1497 46.4333H31.9606C30.9758 46.4333 30.1775 45.6349 30.1775 44.6501V32.4611C30.1775 31.4763 30.9758 30.678 31.9606 30.678H44.1497C45.1345 30.678 45.9328 31.4763 45.9328 32.4611V44.6502C45.9328 45.6349 45.1345 46.4333 44.1497 46.4333Z" fill="#FFDCB6"/>
<path id="Vector_3" d="M45.4632 27.1101H41.0951C42.8081 27.1101 44.1967 28.4988 44.1967 30.2117V41.5947C44.1967 43.3077 42.8081 44.6962 41.0951 44.6962H29.7122C27.9992 44.6962 26.6106 43.3076 26.6106 41.5947V45.9626C26.6106 48.1921 28.4181 49.9996 30.6476 49.9996H45.4632C47.6927 49.9996 49.5001 48.1921 49.5001 45.9626V31.147C49.5001 28.9174 47.6927 27.1101 45.4632 27.1101Z" fill="#B1B7E3"/>
<path id="Vector_4" d="M44.1966 30.6797V41.5948C44.1966 43.3077 42.808 44.6964 41.0951 44.6964H30.18C30.2051 45.6593 30.9917 46.4326 31.9608 46.4326H44.1499C45.1347 46.4326 45.933 45.6343 45.933 44.6495V32.4605C45.933 31.4914 45.1596 30.7048 44.1966 30.6797Z" fill="#EFA5B6"/>
<g id="Group_3">
<path id="Vector_5" d="M42.5266 27.0882H27.7109C25.4814 27.0882 23.674 25.2808 23.674 23.0513V8.23564C23.674 6.00615 25.4814 4.19873 27.7109 4.19873H42.5267C44.7562 4.19873 46.5636 6.00615 46.5636 8.23564V23.0514C46.5635 25.2809 44.7562 27.0882 42.5266 27.0882Z" fill="#EF8BBD"/>
<path id="Vector_6" d="M41.2133 23.5208H29.0243C28.0395 23.5208 27.2412 22.7224 27.2412 21.7376V9.54849C27.2412 8.56372 28.0395 7.76538 29.0243 7.76538H41.2133C42.1981 7.76538 42.9964 8.56372 42.9964 9.54849V21.7376C42.9964 22.7224 42.1981 23.5208 41.2133 23.5208Z" fill="#FFDCB6"/>
<path id="Vector_7" d="M42.5267 4.19873H38.1586C39.8716 4.19873 41.2602 5.5874 41.2602 7.30029V18.6833C41.2602 20.3962 39.8715 21.7849 38.1586 21.7849H26.7756C25.0627 21.7849 23.674 20.3962 23.674 18.6833V23.0513C23.674 25.2808 25.4814 27.0882 27.7109 27.0882H42.5267C44.7562 27.0882 46.5636 25.2808 46.5636 23.0513V8.23564C46.5635 6.00615 44.7562 4.19873 42.5267 4.19873Z" fill="#E068BD"/>
<path id="Vector_8" d="M41.2602 7.76831V18.6834C41.2602 20.3963 39.8716 21.785 38.1586 21.785H27.2417C27.2668 22.7479 28.0553 23.5212 29.0243 23.5212H41.2133C42.1981 23.5212 42.9964 22.7229 42.9964 21.7381V9.54907C42.9964 8.58013 42.2231 7.79341 41.2602 7.76831Z" fill="#EFA5B6"/>
</g>
<g id="Group_4">
<path id="Vector_9" d="M19.3526 49.9996H4.53692C2.30743 49.9996 0.500008 48.1921 0.500008 45.9626V31.147C0.500008 28.9175 2.30743 27.1101 4.53692 27.1101H19.3526C21.5821 27.1101 23.3896 28.9175 23.3896 31.147V45.9626C23.3895 48.1921 21.5821 49.9996 19.3526 49.9996Z" fill="#CAB4EF"/>
<path id="Vector_10" d="M18.0394 46.432H5.85021C4.86545 46.432 4.06711 45.6337 4.06711 44.6489V32.4599C4.06711 31.4751 4.86545 30.6768 5.85021 30.6768H18.0394C19.0241 30.6768 19.8225 31.4751 19.8225 32.4599V44.649C19.8225 45.6337 19.0241 46.432 18.0394 46.432Z" fill="#FFDCB6"/>
<path id="Vector_11" d="M19.3535 27.1101H14.9855C16.6985 27.1101 18.087 28.4988 18.087 30.2117V41.5947C18.087 43.3077 16.6985 44.6962 14.9855 44.6962H3.60257C1.88958 44.6962 0.501007 43.3077 0.501007 41.5947V45.9627C0.500909 48.1921 2.30833 49.9996 4.53782 49.9996H19.3535C21.583 49.9996 23.3905 48.1922 23.3905 45.9626V31.147C23.3904 28.9175 21.583 27.1101 19.3535 27.1101Z" fill="#BE87EF"/>
<path id="Vector_12" d="M18.0861 30.6797V41.5947C18.0861 43.3077 16.6976 44.6963 14.9846 44.6963H4.06953C4.09463 45.6592 4.88125 46.4325 5.8503 46.4325H18.0395C19.0242 46.4325 19.8226 45.6342 19.8226 44.6494V32.4605C19.8225 31.4914 19.0491 30.7047 18.0861 30.6797Z" fill="#EFA5B6"/>
<g id="Group_5">
<path id="Vector_13" d="M6.74264 38.8789C6.20328 38.8789 5.76608 38.4416 5.76608 37.9023V36.6953C5.76608 36.1561 6.20328 35.7188 6.74264 35.7188C7.28199 35.7188 7.7192 36.1561 7.7192 36.6953V37.9023C7.7192 38.4417 7.28199 38.8789 6.74264 38.8789Z" fill="white"/>
</g>
<g id="Group_6">
<path id="Vector_14" d="M6.74264 34.8157C6.20328 34.8157 5.76608 34.3784 5.76608 33.8391V33.3962C5.76608 32.857 6.20328 32.4197 6.74264 32.4197C7.28199 32.4197 7.7192 32.857 7.7192 33.3962V33.8391C7.7192 34.3785 7.28199 34.8157 6.74264 34.8157Z" fill="white"/>
</g>
</g>
<g id="Group_7">
<g id="Group_8">
<path id="Vector_15" d="M39.0826 44.6404C38.5635 44.6068 38.1711 44.1527 38.1711 43.6325V34.4214H36.9965C36.4763 34.4214 36.0221 34.0289 35.9886 33.51C35.9516 32.9412 36.4021 32.4683 36.963 32.4683H39.2383C39.7276 32.4683 40.1243 32.8649 40.1243 33.3543V43.666C40.1242 44.2269 39.6513 44.6774 39.0826 44.6404Z" fill="#D58A9C"/>
</g>
</g>
<g id="Group_9">
<g id="Group_10">
<path id="Vector_16" d="M34.6442 21.833C32.6841 21.833 32.5403 21.7849 32.4085 21.741C32.0832 21.6326 31.84 21.3866 31.7413 21.0662C31.5713 20.5135 31.8097 20.2014 32.4468 19.3672C32.9666 18.6865 33.9343 17.4196 35.5558 15.1028C36.038 14.4139 36.3489 13.7969 36.4806 13.2678L36.5154 12.9936C36.4864 12.1152 35.7629 11.4096 34.8777 11.4096C34.0961 11.4096 33.4197 11.9648 33.2696 12.7297C33.1655 13.259 32.6519 13.6037 32.1232 13.4998C31.5939 13.3959 31.2491 12.8826 31.3531 12.3534C31.6827 10.6749 33.1651 9.45654 34.8777 9.45654C36.8582 9.45654 38.4695 11.0679 38.4695 13.0485V13.1106L38.405 13.6165L38.3939 13.6646C38.2122 14.448 37.7957 15.3088 37.1559 16.2229C35.9421 17.9571 35.0884 19.113 34.5119 19.8777C35.4766 19.8742 36.736 19.869 37.914 19.8543C37.9182 19.8542 37.9224 19.8542 37.9266 19.8542C38.4602 19.8542 38.8961 20.2834 38.9027 20.8185C38.9095 21.3577 38.4778 21.8005 37.9386 21.8072C36.4813 21.8254 35.4202 21.833 34.6442 21.833Z" fill="#D58A9C"/>
</g>
</g>
<g id="Group_11">
<g id="Group_12">
<path id="Vector_17" d="M11.9448 39.5317C11.4054 39.5317 10.9682 39.0944 10.9682 38.5551C10.9682 38.0159 11.4054 37.5786 11.9448 37.5786C12.8485 37.5786 13.5836 36.8434 13.5836 35.9397C13.5836 35.0361 12.8485 34.3009 11.9448 34.3009C11.1632 34.3009 10.4869 34.8562 10.3368 35.621C10.2328 36.1502 9.71996 36.4956 9.19027 36.3912C8.66107 36.2873 8.31625 35.774 8.42025 35.2448C8.74984 33.5663 10.2322 32.3479 11.9448 32.3479C13.9254 32.3479 15.5367 33.9592 15.5367 35.9398C15.5368 37.9204 13.9254 39.5317 11.9448 39.5317Z" fill="#D58A9C"/>
</g>
<g id="Group_13">
<path id="Vector_18" d="M11.9448 44.7622C10.1628 44.7622 8.63336 43.4329 8.38746 41.67C8.36451 41.5057 8.35289 41.3375 8.35289 41.1702C8.35289 40.6309 8.7901 40.1936 9.32945 40.1936C9.86881 40.1936 10.306 40.6309 10.306 41.1702C10.306 41.2473 10.3114 41.3246 10.3218 41.3998C10.4339 42.2034 11.1317 42.8091 11.9449 42.8091C12.8486 42.8091 13.5838 42.074 13.5838 41.1703C13.5838 40.2666 12.8486 39.5315 11.9449 39.5315C11.4055 39.5315 10.9683 39.0942 10.9683 38.5549C10.9683 38.0157 11.4055 37.5784 11.9449 37.5784C13.9256 37.5784 15.5369 39.1897 15.5369 41.1703C15.5369 43.1508 13.9255 44.7622 11.9448 44.7622Z" fill="#D58A9C"/>
</g>
</g>
</g>
<g id="Group_14">
<path id="Vector_19" d="M17.2371 0.253442L18.0872 2.64368C18.1237 2.74602 18.1957 2.82708 18.2867 2.86809L20.4103 3.82493C20.7103 3.96008 20.7103 4.43811 20.4103 4.57327L18.2867 5.5301C18.1957 5.57102 18.1237 5.65217 18.0872 5.75452L17.2371 8.14485C17.117 8.48254 16.6923 8.48254 16.5722 8.14485L15.7221 5.75452C15.6857 5.65217 15.6136 5.57112 15.5227 5.5301L13.3991 4.57327C13.0991 4.43811 13.0991 3.96008 13.3991 3.82493L15.5227 2.86809C15.6136 2.82708 15.6857 2.74602 15.7221 2.64368L16.5723 0.253442C16.6924 -0.0841553 17.1171 -0.0841553 17.2371 0.253442Z" fill="#F7C4DB"/>
<path id="Vector_20" d="M6.57639 21.0205C6.96901 20.0733 6.51939 18.9871 5.57212 18.5945C4.62486 18.2019 3.53866 18.6514 3.14604 19.5986C2.75342 20.5459 3.20305 21.632 4.15031 22.0247C5.09758 22.4173 6.18377 21.9677 6.57639 21.0205Z" fill="#EF8BBD"/>
<path id="Vector_21" d="M8.81228 7.89173C8.88173 7.46326 8.5907 7.05961 8.16223 6.99015C7.73376 6.92069 7.3301 7.21173 7.26065 7.6402C7.19119 8.06867 7.48222 8.47232 7.9107 8.54178C8.33917 8.61124 8.74282 8.3202 8.81228 7.89173Z" fill="#EF8BBD"/>
<path id="Vector_22" d="M12.1915 14.8131L12.8221 16.5862C12.849 16.662 12.9025 16.7222 12.9699 16.7526L14.5452 17.4623C14.7678 17.5626 14.7678 17.9172 14.5452 18.0175L12.9699 18.7273C12.9024 18.7576 12.849 18.8178 12.8221 18.8937L12.1915 20.6667C12.1024 20.9172 11.7874 20.9172 11.6982 20.6667L11.0677 18.8937C11.0407 18.8178 10.9872 18.7576 10.9198 18.7273L9.34452 18.0175C9.12196 17.9172 9.12196 17.5626 9.34452 17.4623L10.9198 16.7526C10.9873 16.7222 11.0407 16.662 11.0677 16.5862L11.6982 14.8131C11.7873 14.5626 12.1023 14.5626 12.1915 14.8131Z" fill="#F7C4DB"/>
</g>
</g>
</g>
<defs>
<clipPath id="clip0_1_2042">
<rect width="50" height="50" fill="white"/>
</clipPath>
</defs>
</svg>
