<svg width="50" height="50" viewBox="0 0 50 50" fill="none" xmlns="http://www.w3.org/2000/svg">
<g id="book 1" clip-path="url(#clip0_1_2015)">
<g id="Page 1">
<g id="026   Idea">
<path id="Shape" d="M7.41384 26.147H5.01729C4.60491 26.1477 4.25081 26.4404 4.17246 26.8452L0.396597 46.2246C0.298624 46.7308 0.432371 47.2543 0.761154 47.6515C1.08994 48.0487 1.57924 48.2779 2.09487 48.2763H20.6897C20.6897 49.2246 22.6207 50.0004 25 50.0004C27.3794 50.0004 29.3104 49.2246 29.3104 48.2763H47.9052C48.4208 48.2779 48.9102 48.0487 49.2389 47.6515C49.5677 47.2543 49.7015 46.7308 49.6035 46.2246L45.8276 26.8452C45.7493 26.4404 45.3952 26.1477 44.9828 26.147H7.41384Z" fill="#E64C3C"/>
<path id="Shape_2" d="M25 28.6551V44.8275C23.7388 44.2797 22.4243 43.8637 21.0776 43.5861C15.9584 42.4731 10.6351 42.7439 5.65519 44.3706C5.36895 44.4579 5.05792 44.3918 4.83194 44.1956C4.60596 43.9994 4.49685 43.7007 4.54312 43.4051L7.41381 26.1465L7.65519 24.6896C7.71697 24.3198 8.00888 24.0314 8.37933 23.974C8.96553 23.8878 9.56898 23.8016 10.1724 23.7327C11.2259 25.7804 13.3351 27.0679 15.6379 27.0689C15.7931 27.0689 15.9397 27.0602 16.0862 27.0516C16.6603 27.0068 17.2257 26.8851 17.7673 26.6896C17.769 26.7079 17.7749 26.7256 17.7845 26.7413C18.4295 28.5479 20.142 29.7529 22.0604 29.7499C23.1406 29.7535 24.1853 29.3644 25 28.6551Z" fill="#F5EFCA"/>
<path id="Shape_3" d="M44.3449 44.3707C39.365 42.7441 34.0417 42.4733 28.9225 43.5862C27.5757 43.8638 26.2613 44.2798 25.0001 44.8276V28.6552C25.1814 28.507 25.3487 28.3425 25.5001 28.1638C26.3614 28.5064 27.28 28.6819 28.207 28.6811H28.2587C28.3035 29.2975 28.5384 29.8848 28.9311 30.3621C29.7678 31.1893 30.8138 31.7733 31.957 32.0517C32.7865 32.3166 33.5264 32.8059 34.0949 33.4655C34.6016 34.0933 35.4603 34.3141 36.207 34.0086C36.8643 33.7247 37.2908 33.0781 37.2932 32.3621C37.2941 32.1748 37.265 31.9885 37.207 31.8104C37.1208 31.5431 37.0259 31.2759 36.9139 31.0173C36.6977 30.4831 36.4137 29.979 36.069 29.5173C37.7788 28.5926 38.9794 26.9452 39.3363 25.0345C39.3621 25 39.3966 24.9655 39.4225 24.9311C39.7175 24.584 39.9587 24.1946 40.138 23.7759C40.638 23.8362 41.1294 23.8966 41.6208 23.9742C41.9912 24.0315 42.2831 24.3199 42.3449 24.6897L42.5863 26.1466L45.457 43.4052C45.5032 43.7009 45.3941 43.9995 45.1681 44.1957C44.9422 44.3919 44.6311 44.458 44.3449 44.3707Z" fill="#F9EAB0"/>
<path id="Shape_4" d="M29.3104 48.2753C29.3104 49.2236 27.3793 49.9995 25 49.9995C22.6207 49.9995 20.6897 49.2236 20.6897 48.2753L21.0776 43.5857C22.4244 43.8633 23.7388 44.2793 25 44.8271C26.2612 44.2793 27.5757 43.8633 28.9224 43.5857L29.3104 48.2753Z" fill="#C03A2B"/>
<path id="Shape_5" d="M40.5173 21.9739C40.5165 22.5942 40.3873 23.2076 40.138 23.7756C39.9587 24.1943 39.7175 24.5837 39.4224 24.9307C39.3966 24.9652 39.3621 24.9997 39.3362 25.0342C38.9794 26.9449 37.7787 28.5923 36.069 29.517C36.4137 29.9787 36.6976 30.4828 36.9138 31.017C37.0259 31.2756 37.1207 31.5428 37.2069 31.8101C37.2649 31.9882 37.294 32.1745 37.2931 32.3618C37.2908 33.0778 36.8643 33.7244 36.2069 34.0083C35.4602 34.3138 34.6016 34.093 34.0949 33.4652C33.5264 32.8056 32.7864 32.3163 31.9569 32.0514C30.8137 31.773 29.7678 31.189 28.9311 30.3618C28.5384 29.8845 28.3034 29.2972 28.2586 28.6807H28.2069C27.28 28.6816 26.3613 28.5061 25.5 28.1635C25.3487 28.3422 25.1813 28.5067 25 28.6549C24.1853 29.3642 23.1406 29.7533 22.0604 29.7497C20.142 29.7527 18.4295 28.5477 17.7845 26.7411C17.7749 26.7254 17.769 26.7077 17.7673 26.6894C17.2257 26.8849 16.6603 27.0066 16.0862 27.0514C15.9397 27.0601 15.7931 27.0687 15.638 27.0687C13.308 27.0671 11.1784 25.7509 10.135 23.6677C9.09153 21.5844 9.31287 19.0907 10.7069 17.2239C10.6032 16.9423 10.5507 16.6445 10.5517 16.3445C10.5466 15.0705 11.4414 13.97 12.6897 13.7152C12.6943 13.7105 12.7004 13.7075 12.7069 13.7066C12.6983 13.6032 12.6897 13.4997 12.6897 13.3876C12.6885 12.9095 12.7884 12.4365 12.9828 11.9997C13.5328 10.7276 14.7865 9.90424 16.1724 9.90489C16.6951 9.9024 17.2114 10.0204 17.6811 10.2497C18.5988 8.70455 20.2632 7.75768 22.0604 7.75833C23.2934 7.75386 24.4847 8.20517 25.4052 9.02558C25.9336 8.17316 26.8949 7.68838 27.8945 7.77017C28.8941 7.85195 29.7637 8.48653 30.1466 9.41351C30.3928 9.38601 30.6402 9.37162 30.888 9.3704C34.2281 9.37593 37.0077 11.9383 37.2845 15.267H37.3104C38.0206 15.267 38.7017 15.5497 39.2031 16.0527C39.7045 16.5558 39.9851 17.2377 39.9828 17.948C39.9811 18.4124 39.8625 18.869 39.638 19.2756C40.21 20.0589 40.518 21.0039 40.5173 21.9739Z" fill="#FB7B76"/>
<path id="Shape_6" d="M25.0001 2.58621C24.524 2.58621 24.138 2.20025 24.138 1.72414V0.862069C24.138 0.385961 24.524 0 25.0001 0C25.4762 0 25.8621 0.385961 25.8621 0.862069V1.72414C25.8621 2.20025 25.4762 2.58621 25.0001 2.58621Z" fill="#F0C419"/>
<path id="Shape_7" d="M38.894 8.51992C38.5454 8.51984 38.2311 8.30981 38.0977 7.98772C37.9643 7.66564 38.0381 7.29491 38.2845 7.04837L39.1466 6.1863C39.363 5.9622 39.6836 5.87232 39.985 5.95121C40.2864 6.03011 40.5218 6.26549 40.6007 6.56689C40.6795 6.8683 40.5897 7.18882 40.3656 7.40526L39.5035 8.26733C39.3419 8.42901 39.1226 8.51987 38.894 8.51992Z" fill="#F0C419"/>
<path id="Shape_8" d="M11.1061 8.51992C10.8775 8.51987 10.6582 8.42901 10.4966 8.26733L9.63454 7.40526C9.41044 7.18882 9.32056 6.8683 9.39946 6.56689C9.47835 6.26549 9.71373 6.03011 10.0151 5.95121C10.3165 5.87232 10.6371 5.9622 10.8535 6.1863L11.7156 7.04837C11.962 7.29491 12.0358 7.66564 11.9024 7.98772C11.769 8.30981 11.4547 8.51984 11.1061 8.51992Z" fill="#F0C419"/>
<path id="Shape_9" d="M17.7423 4.89185C17.3936 4.89194 17.0793 4.68202 16.9457 4.35995L15.9561 1.9703C15.8303 1.68437 15.869 1.35274 16.0572 1.10348C16.2455 0.854206 16.5539 0.726301 16.8634 0.769151C17.1728 0.812001 17.4349 1.0189 17.5483 1.30996L18.5388 3.69961C18.6267 3.91096 18.627 4.14859 18.5395 4.36011C18.452 4.57164 18.284 4.73968 18.0725 4.8272C17.9676 4.86992 17.8555 4.89188 17.7423 4.89185Z" fill="#F0C419"/>
<path id="Shape_10" d="M32.2578 4.89185C32.1445 4.89161 32.0324 4.86936 31.9276 4.82633C31.7163 4.73881 31.5485 4.57091 31.461 4.35959C31.3735 4.14828 31.3736 3.91086 31.4612 3.69961L32.4517 1.30996C32.5652 1.0189 32.8273 0.812001 33.1367 0.769151C33.4461 0.726301 33.7545 0.854206 33.9428 1.10348C34.1311 1.35274 34.1698 1.68437 34.044 1.9703L33.0543 4.35995C32.9208 4.68202 32.6064 4.89194 32.2578 4.89185Z" fill="#F0C419"/>
<path id="Shape_11" d="M42.5216 15.1568C42.1093 15.1581 41.7539 14.8673 41.6735 14.463C41.593 14.0587 41.8101 13.654 42.1914 13.4974L44.5811 12.5077C44.8657 12.3899 45.1915 12.4329 45.4358 12.6204C45.6801 12.808 45.8058 13.1116 45.7655 13.417C45.7253 13.7223 45.5251 13.983 45.2406 14.1008L42.8518 15.0905C42.7471 15.1341 42.6349 15.1566 42.5216 15.1568Z" fill="#F0C419"/>
<path id="Shape_12" d="M7.47852 15.1568C7.36517 15.1566 7.25297 15.1341 7.14834 15.0905L4.75955 14.1008C4.47497 13.983 4.27486 13.7223 4.23459 13.417C4.19432 13.1116 4.32002 12.808 4.56433 12.6204C4.80864 12.4329 5.13445 12.3899 5.41903 12.5077L7.80869 13.4974C8.19002 13.654 8.40708 14.0587 8.32664 14.463C8.24619 14.8673 7.89076 15.1581 7.47852 15.1568Z" fill="#F0C419"/>
<g id="Group">
<path id="Shape_13" d="M39.4225 24.931C39.3966 24.9654 39.3621 24.9999 39.3363 25.0344C39.1844 25.8646 38.8678 26.6561 38.4052 27.362C37.9538 27.4901 37.4866 27.554 37.0173 27.5517C36.163 27.5492 35.3212 27.3454 34.5604 26.9568C34.2003 26.7641 33.8621 26.5329 33.5518 26.2672C33.2079 26.4003 32.8429 26.4704 32.4742 26.4741C31.3355 26.4799 30.2924 25.8381 29.7845 24.8189C29.6459 24.5432 29.6649 24.2146 29.8344 23.9567C30.0038 23.6989 30.2979 23.551 30.6059 23.5688C30.9139 23.5866 31.1891 23.7674 31.3276 24.043C31.4979 24.3699 31.7995 24.6086 32.1568 24.6991C32.514 24.7897 32.8929 24.7235 33.1983 24.5172C33.5431 24.2818 33.7496 23.8915 33.7501 23.4741C33.7513 23.2742 33.7071 23.0767 33.6208 22.8965C33.4472 22.4796 33.6246 21.9995 34.0276 21.7958C34.4306 21.592 34.9224 21.7337 35.1552 22.1206C35.3649 22.541 35.474 23.0043 35.4742 23.4741C35.4672 24.0764 35.2779 24.6625 34.9311 25.1551C35.069 25.2499 35.207 25.3448 35.3449 25.4223C35.8622 25.6886 36.4355 25.8275 37.0173 25.8275C37.9016 25.8324 38.7572 25.5135 39.4225 24.931Z" fill="#FF5364"/>
<path id="Shape_14" d="M28.8793 21.5465C29.9961 20.777 30.7641 19.5979 31.0164 18.2654C31.0806 17.9604 30.9751 17.6444 30.7405 17.4391C30.5059 17.2339 30.1787 17.1712 29.8849 17.2753C29.5911 17.3795 29.3763 17.6341 29.3233 17.9413C29.1543 18.8304 28.6413 19.6169 27.8957 20.1301C26.4615 21.0961 24.5379 20.8768 23.3578 19.6128C23.0367 19.2605 22.4907 19.2352 22.1384 19.5564C21.7861 19.8775 21.7608 20.4234 22.0819 20.7758C22.8132 21.5832 23.7797 22.1405 24.8449 22.3689C24.3619 23.0477 23.5797 23.45 22.7466 23.4482C22.2705 23.4482 21.8845 23.8341 21.8845 24.3103C21.8845 24.7864 22.2705 25.1723 22.7466 25.1723C24.5312 25.1794 26.1325 24.0772 26.763 22.4077C27.5236 22.2812 28.2466 21.9871 28.8793 21.5465Z" fill="#FF5364"/>
<path id="Shape_15" d="M36.9139 31.0178C36.2802 31.3412 35.5994 31.5623 34.8966 31.673C34.851 31.6802 34.8048 31.683 34.7587 31.6816C34.3047 31.6858 33.9252 31.3371 33.8911 30.8844C33.857 30.4316 34.1798 30.03 34.6294 29.9661C35.1292 29.8904 35.6146 29.7393 36.069 29.5178C36.4137 29.9796 36.6977 30.4837 36.9139 31.0178Z" fill="#FF5364"/>
<path id="Shape_16" d="M17.7069 25.0001C17.6634 25.242 17.6403 25.4871 17.638 25.7329C17.6362 26.0563 17.6797 26.3784 17.7673 26.6898C17.2257 26.8853 16.6603 27.007 16.0862 27.0518C15.9759 26.6295 15.918 26.1952 15.9138 25.7587C14.3953 25.5931 13.2443 24.3121 13.2414 22.7846C13.2385 22.3045 13.6234 21.9119 14.1035 21.9053C14.331 21.9039 14.5498 21.9931 14.7115 22.1532C14.8732 22.3133 14.9646 22.5312 14.9655 22.7587V22.7846C14.9784 23.4658 15.5177 24.0202 16.1983 24.0518C16.3175 23.663 16.4824 23.2897 16.6897 22.9398C16.8054 22.7421 16.9961 22.5995 17.2184 22.5443C17.4408 22.4891 17.676 22.5261 17.8707 22.6467C18.2761 22.8972 18.4064 23.4261 18.1638 23.8363C17.9449 24.1947 17.7903 24.5885 17.7069 25.0001Z" fill="#FF5364"/>
<path id="Shape_17" d="M30.5259 30.0433C30.0079 30.209 29.473 30.316 28.9311 30.3623C28.5384 29.885 28.3034 29.2977 28.2587 28.6812C28.3421 28.6828 28.4255 28.6799 28.5087 28.6726C29.0206 28.6401 29.527 28.5475 30.0173 28.3967C30.3146 28.2948 30.6439 28.3627 30.8766 28.574C31.1092 28.7853 31.2085 29.1066 31.1355 29.4123C31.0625 29.718 30.8289 29.9598 30.5259 30.0433Z" fill="#FF5364"/>
<path id="Shape_18" d="M23.1035 14.6553C23.1035 14.1792 22.7176 13.7932 22.2415 13.7932C20.0523 13.7956 18.2783 15.5696 18.2759 17.7587C18.2759 18.2348 18.6619 18.6208 19.138 18.6208C19.6141 18.6208 20.0001 18.2348 20.0001 17.7587C20.0001 17.1643 20.2362 16.5942 20.6566 16.1738C21.0769 15.7535 21.647 15.5174 22.2415 15.5174C22.7176 15.5174 23.1035 15.1314 23.1035 14.6553Z" fill="#FF5364"/>
<path id="Shape_19" d="M11.8518 19.5028C11.6952 19.503 11.5416 19.4601 11.4078 19.3787C10.6969 18.9497 10.1591 18.285 9.88797 17.5002C9.75683 17.1272 9.69007 16.7345 9.69055 16.339C9.69055 14.3853 11.2713 12.7999 13.225 12.7942C14.3445 12.7899 15.3985 13.3216 16.0604 14.2244C16.2441 14.4717 16.2819 14.7982 16.1596 15.081C16.0373 15.3638 15.7734 15.5598 15.4673 15.5952C15.1613 15.6307 14.8596 15.5002 14.6759 15.2528C14.338 14.7918 13.8001 14.5201 13.2285 14.5218C12.4125 14.5264 11.6992 15.073 11.4825 15.8597C11.2659 16.6464 11.5989 17.4812 12.2975 17.9028C12.6296 18.1026 12.7877 18.4994 12.6837 18.8728C12.5797 19.2462 12.2394 19.5044 11.8518 19.5037V19.5028Z" fill="#FF5364"/>
<path id="Shape_20" d="M30.3509 11.3029C29.8748 11.3029 29.4888 10.9169 29.4888 10.4408C29.4888 9.43933 28.6769 8.62746 27.6754 8.62746C26.6739 8.62746 25.8621 9.43933 25.8621 10.4408C25.8621 10.9169 25.4761 11.3029 25 11.3029C24.5239 11.3029 24.1379 10.9169 24.1379 10.4408C24.1379 8.48711 25.7217 6.90332 27.6754 6.90332C29.6292 6.90332 31.2129 8.48711 31.2129 10.4408C31.2129 10.6695 31.1221 10.8887 30.9605 11.0504C30.7988 11.2121 30.5795 11.3029 30.3509 11.3029Z" fill="#FF5364"/>
<path id="Shape_21" d="M38.4371 21.2426C38.0369 21.2387 37.6919 20.9598 37.6044 20.5692C37.5168 20.1786 37.7096 19.7791 38.0699 19.6047C38.4134 19.4433 38.6986 19.1795 38.8863 18.8495C39.3248 18.1021 39.1722 17.1488 38.5223 16.5756C37.8724 16.0024 36.9075 15.9702 36.2207 16.4987C35.8398 16.7843 35.2995 16.7071 35.0138 16.3263C34.7282 15.9454 34.8054 15.405 35.1862 15.1194C35.7895 14.6626 36.5244 14.4134 37.2811 14.409C38.9466 14.3977 40.3953 15.5477 40.7621 17.1724C41.1289 18.7971 40.3149 20.4579 38.8061 21.1633C38.6906 21.217 38.5645 21.2442 38.4371 21.2426Z" fill="#FF5364"/>
</g>
</g>
</g>
</g>
<defs>
<clipPath id="clip0_1_2015">
<rect width="50" height="50" fill="white"/>
</clipPath>
</defs>
</svg>
