<svg width="50" height="50" viewBox="0 0 50 50" fill="none" xmlns="http://www.w3.org/2000/svg">
<g id="lightbulb 1" clip-path="url(#clip0_1_1992)">
<g id="Page 1">
<g id="004   Genius">
<g id="Group">
<path id="Shape" d="M26.8965 8.74632C26.5031 8.74706 26.1591 8.48137 26.0604 8.10055C25.9617 7.71973 26.1333 7.3204 26.4776 7.12994C33.0672 3.47477 41.1172 0.750628 43.944 4.07822C44.2534 4.44101 44.2102 4.98599 43.8474 5.29546C43.4846 5.60493 42.9396 5.5617 42.6302 5.19891C41.1784 3.49287 35.4517 4.12649 27.3138 8.64201C27.1856 8.71116 27.0422 8.74703 26.8965 8.74632Z" fill="#E57E25"/>
<path id="Shape_2" d="M6.24999 31.6976C5.8965 31.6978 5.57871 31.4822 5.44827 31.1536C4.26809 28.1838 6.94137 23.0752 12.6034 17.4855C12.9472 17.1866 13.4642 17.2067 13.7837 17.5314C14.1032 17.8562 14.1149 18.3734 13.8103 18.7122C8.13016 24.3243 6.3224 28.6847 7.04999 30.5166C7.15569 30.782 7.12305 31.0825 6.96284 31.319C6.80263 31.5555 6.53566 31.6973 6.24999 31.6976Z" fill="#E57E25"/>
<path id="Shape_3" d="M23.3267 8.87177C23.1794 8.87181 23.0346 8.83412 22.906 8.76229C14.5284 4.06574 9.0362 3.56143 7.47499 5.07608C7.1341 5.40936 6.58758 5.40318 6.2543 5.06229C5.92103 4.7214 5.9272 4.17487 6.2681 3.8416C9.33275 0.85884 17.3026 3.65022 23.7414 7.25712C24.0843 7.4487 24.2543 7.84787 24.1549 8.22789C24.0555 8.60791 23.7118 8.87267 23.319 8.87177H23.3267Z" fill="#E57E25"/>
<path id="Shape_4" d="M43.7836 31.6121C43.503 31.612 43.24 31.4755 43.0786 31.2459C42.9172 31.0164 42.8776 30.7227 42.9724 30.4586C43.7853 28.1974 41.1233 23.5871 36.1896 18.713C35.8601 18.3769 35.861 17.8386 36.1917 17.5037C36.5224 17.1688 37.0606 17.161 37.4009 17.4862C42.9776 22.9957 45.6664 28.063 44.594 31.0414C44.4711 31.3834 44.147 31.6117 43.7836 31.6121Z" fill="#E57E25"/>
</g>
<path id="Shape_5" d="M18.1034 43.103H15.5172C15.0411 43.103 14.6552 42.7171 14.6552 42.241C14.6552 41.7649 15.0411 41.3789 15.5172 41.3789H18.1034C18.5795 41.3789 18.9655 41.7649 18.9655 42.241C18.9655 42.7171 18.5795 43.103 18.1034 43.103Z" fill="#7F8284"/>
<path id="Shape_6" d="M34.4827 43.103H31.8965C31.4204 43.103 31.0345 42.7171 31.0345 42.241C31.0345 41.7649 31.4204 41.3789 31.8965 41.3789H34.4827C34.9588 41.3789 35.3448 41.7649 35.3448 42.241C35.3448 42.7171 34.9588 43.103 34.4827 43.103Z" fill="#7F8284"/>
<path id="Shape_7" d="M40.4482 20.4655C40.1068 24.0008 38.5571 27.3102 36.0603 29.8362C33.4359 32.4348 31.9401 35.9622 31.8965 39.6552H18.1034C18.0974 37.8279 17.719 36.021 16.9914 34.3448C16.2619 32.666 15.2272 31.1373 13.9396 29.8362C9.96837 25.8076 8.5074 19.9353 10.128 14.5155C11.7485 9.09561 16.1932 4.98916 21.7241 3.80172C22.1224 3.72045 22.4098 3.37199 22.4138 2.96552V2.58621C22.4138 1.15788 23.5716 0 25 0C26.4283 0 27.5862 1.15788 27.5862 2.58621V2.96552C27.5902 3.37199 27.8776 3.72045 28.2758 3.80172C35.9741 5.46264 41.2073 12.6268 40.4482 20.4655Z" fill="#F0C419"/>
<path id="Shape_8" d="M37.6914 20.4655C37.458 23.8803 36.2017 27.1456 34.0862 29.8362C31.8631 32.6253 30.6566 36.0885 30.6655 39.6552H19.3345C19.3328 37.8461 19.0238 36.0504 18.4207 34.3448C17.8462 32.7109 16.9985 31.1864 15.9138 29.8362C13.7983 27.1456 12.542 23.8803 12.3086 20.4655C11.6853 12.3707 16.1759 5.39655 22.3086 3.80172C22.6627 3.68038 22.8937 3.33933 22.875 2.96552V2.58621C22.7585 1.28858 23.7044 0.1374 25 0C25.5894 0.0131824 26.1414 0.291993 26.5017 0.758621C26.913 1.27829 27.133 1.92355 27.125 2.58621V2.96552C27.1063 3.33933 27.3373 3.68038 27.6914 3.80172C33.8241 5.39655 38.3147 12.3707 37.6914 20.4655Z" fill="#F3D55B"/>
<path id="Shape_9" d="M31.8965 39.6548V44.8272C31.8937 45.7782 31.1234 46.5485 30.1724 46.5513H19.8276C18.8765 46.5485 18.1063 45.7782 18.1034 44.8272V39.6548H31.8965Z" fill="#95A5A5"/>
<path id="Shape_10" d="M29.3103 46.983C29.3103 48.6468 27.3793 50.0003 25 50.0003C22.6207 50.0003 20.6896 48.6468 20.6896 46.983C20.6893 46.8378 20.7067 46.693 20.7413 46.552H29.2586C29.2933 46.693 29.3107 46.8378 29.3103 46.983Z" fill="#393F4A"/>
<path id="Shape_11" d="M10.1267 33.6209C8.86304 33.6907 7.61199 33.3389 6.5698 32.6209C6.31036 32.4375 6.17283 32.1263 6.21189 31.811C6.25096 31.4957 6.46029 31.2274 6.75664 31.1129C7.05299 30.9984 7.38832 31.0561 7.62928 31.2632C8.86549 32.2261 11.6422 32.0951 15.2474 30.9054C18.5063 29.786 21.6279 28.3009 24.5526 26.4787C25.687 25.789 26.7939 25.0658 27.8543 24.3347C32.0956 21.4658 35.9305 18.0377 39.2551 14.1433C42.0672 10.7166 43.4681 7.658 43.0034 5.96059C42.8813 5.5027 43.1517 5.03213 43.6088 4.90702C44.0659 4.78191 44.5382 5.04918 44.6664 5.50542C45.4741 8.45628 42.8948 12.4261 40.5888 15.2365C37.162 19.255 33.2085 22.7927 28.8353 25.7537C27.7517 26.5037 26.6129 27.2433 25.4491 27.9528C22.4108 29.8438 19.168 31.3844 15.7827 32.5451C13.963 33.1889 12.0557 33.5517 10.1267 33.6209Z" fill="#F29C1F"/>
<path id="Shape_12" d="M39.8707 33.6274C37.9399 33.5617 36.0311 33.1958 34.2129 32.5429C30.8299 31.3822 27.5891 29.8423 24.5526 27.9524C23.3871 27.242 22.2483 26.5024 21.1646 25.7515C16.7912 22.7906 12.8374 19.2529 9.41033 15.2343C7.07671 12.3895 4.47929 8.37998 5.3586 5.42481C5.49689 4.97178 5.97479 4.71519 6.42881 4.85018C6.88283 4.98518 7.14289 5.4612 7.01119 5.91619C6.51033 7.60498 7.90602 10.68 10.7465 14.1412C14.0706 18.0357 17.9049 21.4641 22.1457 24.3334C23.2026 25.0653 24.3129 25.7877 25.4491 26.4791C28.3718 28.3003 31.4914 29.7845 34.7483 30.9033C38.5233 32.1489 41.4371 32.2248 42.5465 31.1067C42.8822 30.7689 43.4281 30.7672 43.7659 31.1028C44.1037 31.4385 44.1055 31.9844 43.7698 32.3222C42.6986 33.2642 41.2931 33.7347 39.8707 33.6274Z" fill="#F29C1F"/>
<path id="Oval" d="M6.4655 34.4825C8.13187 34.4825 9.48274 33.1316 9.48274 31.4652C9.48274 29.7989 8.13187 28.448 6.4655 28.448C4.79912 28.448 3.44826 29.7989 3.44826 31.4652C3.44826 33.1316 4.79912 34.4825 6.4655 34.4825Z" fill="#3B97D3"/>
<path id="Oval_2" d="M6.4655 7.7586C8.13187 7.7586 9.48274 6.40774 9.48274 4.74136C9.48274 3.07499 8.13187 1.72412 6.4655 1.72412C4.79912 1.72412 3.44826 3.07499 3.44826 4.74136C3.44826 6.40774 4.79912 7.7586 6.4655 7.7586Z" fill="#3B97D3"/>
<path id="Oval_3" d="M43.5345 34.4825C45.2009 34.4825 46.5517 33.1316 46.5517 31.4652C46.5517 29.7989 45.2009 28.448 43.5345 28.448C41.8681 28.448 40.5172 29.7989 40.5172 31.4652C40.5172 33.1316 41.8681 34.4825 43.5345 34.4825Z" fill="#3B97D3"/>
<path id="Oval_4" d="M43.5345 7.7586C45.2009 7.7586 46.5517 6.40774 46.5517 4.74136C46.5517 3.07499 45.2009 1.72412 43.5345 1.72412C41.8681 1.72412 40.5172 3.07499 40.5172 4.74136C40.5172 6.40774 41.8681 7.7586 43.5345 7.7586Z" fill="#3B97D3"/>
<path id="Shape_13" d="M14.2112 14.4337C13.9123 14.4336 13.6347 14.2788 13.4777 14.0245C13.3206 13.7701 13.3066 13.4526 13.4405 13.1854C15.0592 9.94344 17.9645 7.52986 21.4482 6.5328C21.7479 6.43744 22.0757 6.51281 22.3036 6.72945C22.5315 6.9461 22.6234 7.26966 22.5433 7.57376C22.4633 7.87785 22.224 8.11422 21.9189 8.19056C18.9009 9.05564 16.3845 11.1477 14.9827 13.9569C14.8367 14.2492 14.5379 14.4338 14.2112 14.4337Z" fill="white"/>
</g>
</g>
</g>
<defs>
<clipPath id="clip0_1_1992">
<rect width="50" height="50" fill="white"/>
</clipPath>
</defs>
</svg>
