<svg width="50" height="50" viewBox="0 0 50 50" fill="none" xmlns="http://www.w3.org/2000/svg">
<g id="presentation 1">
<path id="Vector" d="M26.569 46.849C25.5001 46.849 24.8627 45.7901 25.1923 44.8833L31.4682 27.6241C31.7448 26.8638 32.5855 26.4717 33.3458 26.7479C34.1061 27.0244 34.4982 27.8652 34.2217 28.6255L27.9457 45.8843C27.729 46.4794 27.1675 46.849 26.569 46.849Z" fill="#3AB4FB"/>
<path id="Vector_2" d="M42.2592 46.8492C41.6626 46.8492 41.1018 46.4819 40.884 45.8891L34.5452 28.6299C34.2663 27.8704 34.6562 27.0289 35.4153 26.75C36.1744 26.4708 37.0163 26.8606 37.2952 27.6198L43.634 44.879C43.9911 45.8509 43.2587 46.8492 42.2592 46.8492Z" fill="#1D9CFD"/>
<path id="Vector_3" d="M45.3976 3.125H23.4306C20.8889 3.125 18.8282 5.1857 18.8282 7.72743V24.9874C18.8282 27.5291 20.8889 29.5898 23.4306 29.5898H45.3976C47.9393 29.5898 50 27.5291 50 24.9874V7.72743C50 5.1857 47.9393 3.125 45.3976 3.125Z" fill="#EFF6FE"/>
<path id="Vector_4" d="M45.3976 3.125H34.2217V29.5898H45.3976C47.9393 29.5898 50 27.5291 50 24.9874V7.72743C50 5.1857 47.9393 3.125 45.3976 3.125Z" fill="#D9E4EF"/>
<path id="Vector_5" d="M15.6898 12.4352C15.6898 15.9588 12.8334 18.8152 9.30977 18.8152C5.78613 18.8152 2.92969 15.9588 2.92969 12.4352C2.92969 8.91113 5.78613 6.05469 9.30977 6.05469C12.8334 6.05469 15.6898 8.91113 15.6898 12.4352Z" fill="#FFCFBE"/>
<path id="Vector_6" d="M23.5603 27.8669C22.8366 27.5049 22.5437 26.6252 22.9053 25.9016L26.8279 18.0562C27.19 17.3326 28.07 17.0396 28.7933 17.4013C29.5169 17.7633 29.8099 18.643 29.4483 19.3666L25.5256 27.2115C25.1632 27.9363 24.2828 28.2282 23.5603 27.8669Z" fill="#FFB826"/>
<path id="Vector_7" d="M15.6906 12.435C15.6906 15.9587 12.8342 18.8151 9.30939 18.8151V6.0542C12.8342 6.0542 15.6906 8.91064 15.6906 12.435Z" fill="#F9BCAA"/>
<path id="Vector_8" d="M42.2592 11.5466H26.569C25.7599 11.5466 25.1041 10.8905 25.1041 10.0818C25.1041 9.27269 25.7599 8.61694 26.569 8.61694H42.2592C43.0679 8.61694 43.724 9.27269 43.724 10.0818C43.724 10.8905 43.0683 11.5466 42.2592 11.5466Z" fill="#3AB4FB"/>
<g id="Group">
<path id="Vector_9" d="M42.2592 17.8223H35.6865C34.8774 17.8223 34.2217 17.1665 34.2217 16.3574C34.2217 15.5483 34.8774 14.8926 35.6865 14.8926H42.2592C43.0683 14.8926 43.7241 15.5483 43.7241 16.3574C43.7241 17.1665 43.0683 17.8223 42.2592 17.8223Z" fill="#1D9CFD"/>
<path id="Vector_10" d="M42.2592 24.0981H35.6865C34.8774 24.0981 34.2217 23.442 34.2217 22.6333C34.2217 21.8242 34.8774 21.1685 35.6865 21.1685H42.2592C43.0683 21.1685 43.7241 21.8242 43.7241 22.6333C43.7241 23.442 43.0683 24.0981 42.2592 24.0981Z" fill="#1D9CFD"/>
<path id="Vector_11" d="M42.2592 8.61694H34.2217V11.5466H42.2592C43.0683 11.5466 43.7241 10.8905 43.7241 10.0818C43.7241 9.27269 43.0683 8.61694 42.2592 8.61694Z" fill="#1D9CFD"/>
</g>
<path id="Vector_12" d="M14.0167 46.849H4.60281C3.79372 46.849 3.13797 46.1933 3.13797 45.3842V37.1959C1.31569 36.5829 0 34.8583 0 32.8319V28.125C0 25.6343 0.969315 23.2959 2.72903 21.5408C4.45557 19.8097 6.85501 18.8152 9.31015 18.8152H10.6045C13.1741 18.8152 14.6801 19.7563 16.7908 20.8057C19.1151 21.9615 22.015 23.4035 23.8644 24.3248C25.5707 25.1728 26.3878 27.1614 25.7736 28.9615C25.7717 28.9672 25.7698 28.973 25.7679 28.9787C25.3983 30.072 24.5697 30.9528 23.4943 31.3953C22.4155 31.8344 21.2067 31.7878 20.1714 31.2702C18.6951 30.5316 16.8705 29.6196 15.4819 28.9257V45.3842C15.4816 46.1933 14.8258 46.849 14.0167 46.849Z" fill="#FF7579"/>
<path id="Vector_13" d="M23.8644 24.3248C22.015 23.4035 19.1151 21.9615 16.7904 20.8057C14.6801 19.7563 13.1741 18.8152 10.6045 18.8152H9.30977C9.30977 18.8152 9.30977 18.8152 9.30939 18.8152V46.849H14.0167C14.8258 46.849 15.4816 46.1933 15.4816 45.3842V28.9257C16.8705 29.6196 18.6951 30.5316 20.1714 31.2702C21.2063 31.7878 22.4155 31.834 23.494 31.3953C24.5693 30.9528 25.3983 30.072 25.7679 28.9783C25.7698 28.9726 25.7717 28.9669 25.7736 28.9611C26.3878 27.1614 25.5707 25.1728 23.8644 24.3248Z" fill="#FE4A60"/>
</g>
</svg>
